STARTFONT 2.1
FONT -ibm-courier-bold-r-normal--14-140-100-100-m-99-iso8859-2
SIZE 14 100 100
FONTBOUNDINGBOX 16 22 -1 -3
COMMENT $Header: courB14.bdf,v 1.1 96/01/22 23:46:51 peterlin Exp $
COMMENT 
COMMENT Copyright International Business Machines,Corp. 1991
COMMENT IBM Courier is a Trademark of the IBM Corporation.
COMMENT 
COMMENT Automatic rendering from Adobe Type 1 outline:
COMMENT Primoz Peterlin <primoz.peterlin@biofiz.mf.uni-lj.si>
COMMENT courb.pfa rendered at 15.000000 points
COMMENT Checksum eb69a063
STARTPROPERTIES 3
FONT_ASCENT 18
FONT_DESCENT 3
DEFAULT_CHAR 32
ENDPROPERTIES
CHARS 191
STARTCHAR space
ENCODING 32
SWIDTH 573 0
DWIDTH 12 0
BBX 0 0 0 1
BITMAP
ENDCHAR
STARTCHAR exclam
ENCODING 33
SWIDTH 573 0
DWIDTH 12 0
BBX 4 12 4 1
BITMAP
e0
60
60
60
60
60
60
60
00
60
f0
70
ENDCHAR
STARTCHAR quotedbl
ENCODING 34
SWIDTH 573 0
DWIDTH 12 0
BBX 7 7 3 6
BITMAP
ee
ee
ee
ee
ee
ee
ee
ENDCHAR
STARTCHAR numbersign
ENCODING 35
SWIDTH 573 0
DWIDTH 12 0
BBX 11 16 1 -1
BITMAP
3180
3180
3180
3180
ffe0
ffe0
3180
3180
3180
ffe0
ffe0
3180
3180
3180
3180
3180
ENDCHAR
STARTCHAR dollar
ENCODING 36
SWIDTH 573 0
DWIDTH 12 0
BBX 9 17 2 -2
BITMAP
1800
1800
3f00
7f00
db00
db00
db00
7c00
1f00
db80
d980
db80
ff00
fc00
1800
1800
1800
ENDCHAR
STARTCHAR percent
ENCODING 37
SWIDTH 573 0
DWIDTH 12 0
BBX 12 13 0 1
BITMAP
3c00
fe00
c600
c600
7ce0
3bc0
0f00
7de0
21e0
0330
0330
03f0
01e0
ENDCHAR
STARTCHAR ampersand
ENCODING 38
SWIDTH 573 0
DWIDTH 12 0
BBX 10 12 2 1
BITMAP
3c00
7e00
6200
6000
7000
3980
7b80
ce00
ce00
c700
7fc0
3bc0
ENDCHAR
STARTCHAR quoteright
ENCODING 39
SWIDTH 573 0
DWIDTH 12 0
BBX 5 6 3 7
BITMAP
38
70
70
60
e0
c0
ENDCHAR
STARTCHAR parenleft
ENCODING 40
SWIDTH 573 0
DWIDTH 12 0
BBX 4 16 6 -1
BITMAP
30
70
60
60
c0
c0
c0
c0
c0
c0
c0
c0
60
60
70
30
ENDCHAR
STARTCHAR parenright
ENCODING 41
SWIDTH 573 0
DWIDTH 12 0
BBX 5 16 2 -1
BITMAP
60
60
30
30
30
18
18
18
18
18
18
30
30
30
60
60
ENDCHAR
STARTCHAR asterisk
ENCODING 42
SWIDTH 573 0
DWIDTH 12 0
BBX 9 8 2 5
BITMAP
1800
1800
db00
ff80
3e00
3e00
7600
2600
ENDCHAR
STARTCHAR plus
ENCODING 43
SWIDTH 573 0
DWIDTH 12 0
BBX 10 11 1 2
BITMAP
0c00
0c00
0c00
0c00
ffc0
ffc0
0c00
0c00
0c00
0c00
0c00
ENDCHAR
STARTCHAR comma
ENCODING 44
SWIDTH 573 0
DWIDTH 12 0
BBX 5 6 3 -1
BITMAP
38
70
70
60
e0
e0
ENDCHAR
STARTCHAR minus
ENCODING 45
SWIDTH 573 0
DWIDTH 12 0
BBX 10 2 1 7
BITMAP
ffc0
ffc0
ENDCHAR
STARTCHAR period
ENCODING 46
SWIDTH 573 0
DWIDTH 12 0
BBX 4 4 4 1
BITMAP
60
f0
f0
20
ENDCHAR
STARTCHAR slash
ENCODING 47
SWIDTH 573 0
DWIDTH 12 0
BBX 10 18 1 -2
BITMAP
00c0
00c0
0180
0180
0300
0300
0600
0600
0c00
0c00
1800
1800
3000
3000
6000
6000
c000
4000
ENDCHAR
STARTCHAR zero
ENCODING 48
SWIDTH 573 0
DWIDTH 12 0
BBX 9 13 2 1
BITMAP
3c00
7f00
6300
c380
c180
c180
c180
c180
c180
c380
6300
7f00
3c00
ENDCHAR
STARTCHAR one
ENCODING 49
SWIDTH 573 0
DWIDTH 12 0
BBX 9 13 2 1
BITMAP
3800
f800
d800
1800
1800
1800
1800
1800
1800
1800
1800
ff80
ff80
ENDCHAR
STARTCHAR two
ENCODING 50
SWIDTH 573 0
DWIDTH 12 0
BBX 9 13 1 1
BITMAP
3e00
7f00
6180
0180
0180
0180
0300
0600
1c00
3980
7180
ff80
ff80
ENDCHAR
STARTCHAR three
ENCODING 51
SWIDTH 573 0
DWIDTH 12 0
BBX 9 13 1 1
BITMAP
3e00
7f00
4180
0180
0300
0e00
0f00
0380
0180
0180
4380
ff00
3e00
ENDCHAR
STARTCHAR four
ENCODING 52
SWIDTH 573 0
DWIDTH 12 0
BBX 10 13 1 1
BITMAP
0700
0f00
1b00
1b00
3300
2300
6300
c300
ffc0
ffc0
0300
1fc0
1fc0
ENDCHAR
STARTCHAR five
ENCODING 53
SWIDTH 573 0
DWIDTH 12 0
BBX 9 13 2 1
BITMAP
ff00
ff00
c000
c000
fc00
ff00
c300
0180
0180
0180
0300
ff00
7c00
ENDCHAR
STARTCHAR six
ENCODING 54
SWIDTH 573 0
DWIDTH 12 0
BBX 9 13 2 1
BITMAP
0f80
3f00
7000
6000
c000
fc00
fe00
e300
c300
c300
6300
7e00
3c00
ENDCHAR
STARTCHAR seven
ENCODING 55
SWIDTH 573 0
DWIDTH 12 0
BBX 9 13 2 1
BITMAP
ff80
ff80
c300
0300
0300
0600
0600
0600
0c00
0c00
1c00
1800
1800
ENDCHAR
STARTCHAR eight
ENCODING 56
SWIDTH 573 0
DWIDTH 12 0
BBX 9 13 2 1
BITMAP
3c00
7e00
c300
c300
e300
7f00
7f00
e380
c180
c180
e380
7f00
3e00
ENDCHAR
STARTCHAR nine
ENCODING 57
SWIDTH 573 0
DWIDTH 12 0
BBX 9 13 1 1
BITMAP
1e00
3f00
6300
6180
6180
6380
3f80
1d80
0180
0300
0700
7e00
f800
ENDCHAR
STARTCHAR colon
ENCODING 58
SWIDTH 573 0
DWIDTH 12 0
BBX 4 9 4 1
BITMAP
60
f0
f0
20
00
60
f0
f0
20
ENDCHAR
STARTCHAR semicolon
ENCODING 59
SWIDTH 573 0
DWIDTH 12 0
BBX 5 11 3 -1
BITMAP
30
78
78
10
00
38
70
70
60
60
c0
ENDCHAR
STARTCHAR less
ENCODING 60
SWIDTH 573 0
DWIDTH 12 0
BBX 12 10 0 3
BITMAP
0020
00f0
03c0
1f00
7c00
7c00
1f00
07c0
00f0
0020
ENDCHAR
STARTCHAR equal
ENCODING 61
SWIDTH 573 0
DWIDTH 12 0
BBX 10 5 1 5
BITMAP
ffc0
ffc0
0000
ffc0
ffc0
ENDCHAR
STARTCHAR greater
ENCODING 62
SWIDTH 573 0
DWIDTH 12 0
BBX 12 10 0 3
BITMAP
4000
e000
7c00
1f00
03c0
01f0
0780
1e00
7800
e000
ENDCHAR
STARTCHAR question
ENCODING 63
SWIDTH 573 0
DWIDTH 12 0
BBX 8 12 2 1
BITMAP
7e
ff
c3
03
03
0e
1c
18
00
18
3c
38
ENDCHAR
STARTCHAR at
ENCODING 64
SWIDTH 573 0
DWIDTH 12 0
BBX 12 12 0 1
BITMAP
0f80
3fe0
77e0
efb0
cdb0
d9b0
db30
dfe0
eec0
7020
3fe0
1f80
ENDCHAR
STARTCHAR A
ENCODING 65
SWIDTH 573 0
DWIDTH 12 0
BBX 13 12 0 1
BITMAP
3e00
3f00
0700
0d80
0980
18c0
1fc0
3fe0
3060
6030
f8f8
f8f8
ENDCHAR
STARTCHAR B
ENCODING 66
SWIDTH 573 0
DWIDTH 12 0
BBX 11 12 1 1
BITMAP
ff00
ff80
60c0
60c0
61c0
7f80
7fc0
6060
6060
6060
ffc0
ff80
ENDCHAR
STARTCHAR C
ENCODING 67
SWIDTH 573 0
DWIDTH 12 0
BBX 12 12 1 1
BITMAP
1f40
3fe0
70e0
e060
c000
c000
c000
c000
6020
7070
3fe0
1f80
ENDCHAR
STARTCHAR D
ENCODING 68
SWIDTH 573 0
DWIDTH 12 0
BBX 12 12 0 1
BITMAP
ff80
ffc0
3060
3030
3030
3030
3030
3030
3070
30e0
ffc0
ff80
ENDCHAR
STARTCHAR E
ENCODING 69
SWIDTH 573 0
DWIDTH 12 0
BBX 11 12 1 1
BITMAP
ffe0
ffe0
3060
3360
3360
3f00
3f00
3360
3060
3060
ffe0
ffe0
ENDCHAR
STARTCHAR F
ENCODING 70
SWIDTH 573 0
DWIDTH 12 0
BBX 11 12 1 1
BITMAP
ffe0
ffe0
3060
3360
3360
3f00
3f00
3300
3000
3000
fc00
fc00
ENDCHAR
STARTCHAR G
ENCODING 71
SWIDTH 573 0
DWIDTH 12 0
BBX 11 12 1 1
BITMAP
1ec0
3fc0
71c0
e0c0
c000
c000
c3e0
c3e0
e0c0
70c0
3fc0
1f80
ENDCHAR
STARTCHAR H
ENCODING 72
SWIDTH 573 0
DWIDTH 12 0
BBX 11 12 1 1
BITMAP
f3e0
f3e0
60c0
60c0
60c0
7fc0
7fc0
60c0
60c0
60c0
f3e0
f3e0
ENDCHAR
STARTCHAR I
ENCODING 73
SWIDTH 573 0
DWIDTH 12 0
BBX 9 12 2 1
BITMAP
ff80
ff80
1800
1800
1800
1800
1800
1800
1800
1800
ff80
ff80
ENDCHAR
STARTCHAR J
ENCODING 74
SWIDTH 573 0
DWIDTH 12 0
BBX 11 12 1 1
BITMAP
1fe0
1fe0
0180
0180
0180
0180
c180
c180
c180
c180
ff00
3e00
ENDCHAR
STARTCHAR K
ENCODING 75
SWIDTH 573 0
DWIDTH 12 0
BBX 12 12 1 1
BITMAP
fbe0
fbe0
3180
3300
3600
3c00
3e00
3300
3380
3180
f9f0
f8f0
ENDCHAR
STARTCHAR L
ENCODING 76
SWIDTH 573 0
DWIDTH 12 0
BBX 11 12 1 1
BITMAP
fc00
fc00
3000
3000
3000
3000
3060
3060
3060
3060
ffe0
ffe0
ENDCHAR
STARTCHAR M
ENCODING 77
SWIDTH 573 0
DWIDTH 12 0
BBX 13 12 0 1
BITMAP
f0f8
f8f8
78e0
69e0
6de0
6d60
6760
6760
6660
6060
f9f8
f9f8
ENDCHAR
STARTCHAR N
ENCODING 78
SWIDTH 573 0
DWIDTH 12 0
BBX 12 12 0 1
BITMAP
f1f0
f9f0
3860
3c60
3660
3660
3360
3360
31e0
31e0
fce0
fc60
ENDCHAR
STARTCHAR O
ENCODING 79
SWIDTH 573 0
DWIDTH 12 0
BBX 11 12 1 1
BITMAP
1f00
7f80
61c0
e0e0
c060
c060
c060
c060
e0e0
71c0
3f80
1f00
ENDCHAR
STARTCHAR P
ENCODING 80
SWIDTH 573 0
DWIDTH 12 0
BBX 10 12 2 1
BITMAP
ff00
ff80
60c0
60c0
60c0
61c0
7f80
7f00
6000
6000
fc00
fc00
ENDCHAR
STARTCHAR Q
ENCODING 81
SWIDTH 573 0
DWIDTH 12 0
BBX 11 15 1 -2
BITMAP
1f00
7f80
60c0
c060
c060
c060
c060
c060
e0e0
61c0
3f80
3f00
1c40
3fe0
21c0
ENDCHAR
STARTCHAR R
ENCODING 82
SWIDTH 573 0
DWIDTH 12 0
BBX 11 12 1 1
BITMAP
ff00
ff80
60c0
60c0
61c0
7f80
7e00
6700
6380
6180
f8e0
f8e0
ENDCHAR
STARTCHAR S
ENCODING 83
SWIDTH 573 0
DWIDTH 12 0
BBX 9 12 2 1
BITMAP
3d80
7f80
c380
c180
e000
7e00
1f00
0180
c180
e180
ff00
de00
ENDCHAR
STARTCHAR T
ENCODING 84
SWIDTH 573 0
DWIDTH 12 0
BBX 12 12 0 1
BITMAP
fff0
fff0
c630
c630
c630
4620
0600
0600
0600
0600
1f80
1f80
ENDCHAR
STARTCHAR U
ENCODING 85
SWIDTH 573 0
DWIDTH 12 0
BBX 12 12 0 1
BITMAP
fdf0
fdf0
3060
3060
3060
3060
3060
3060
3060
38e0
1fc0
0f80
ENDCHAR
STARTCHAR V
ENCODING 86
SWIDTH 573 0
DWIDTH 12 0
BBX 13 12 0 1
BITMAP
f8f8
f8f8
3020
3060
3060
18c0
18c0
0d80
0d80
0f00
0700
0600
ENDCHAR
STARTCHAR W
ENCODING 87
SWIDTH 573 0
DWIDTH 12 0
BBX 13 12 0 1
BITMAP
f8f8
f8f8
6230
6730
6730
6f30
3de0
3de0
39e0
38e0
38e0
3060
ENDCHAR
STARTCHAR X
ENCODING 88
SWIDTH 573 0
DWIDTH 12 0
BBX 11 12 1 1
BITMAP
fbe0
fbe0
3180
1b00
1e00
0c00
0e00
1b00
3380
3180
fbe0
fbe0
ENDCHAR
STARTCHAR Y
ENCODING 89
SWIDTH 573 0
DWIDTH 12 0
BBX 12 12 0 1
BITMAP
f9f0
f9f0
30c0
39c0
1980
0f00
0f00
0600
0600
0600
1fc0
1fc0
ENDCHAR
STARTCHAR Z
ENCODING 90
SWIDTH 573 0
DWIDTH 12 0
BBX 9 12 2 1
BITMAP
ff80
ff80
c300
c600
0c00
1c00
1800
3180
6180
c180
ff80
ff80
ENDCHAR
STARTCHAR bracketleft
ENCODING 91
SWIDTH 573 0
DWIDTH 12 0
BBX 4 16 6 -1
BITMAP
f0
f0
c0
c0
c0
c0
c0
c0
c0
c0
c0
c0
c0
c0
f0
f0
ENDCHAR
STARTCHAR backslash
ENCODING 92
SWIDTH 573 0
DWIDTH 12 0
BBX 10 18 1 -2
BITMAP
c000
c000
6000
6000
3000
3000
1800
1800
0c00
0c00
0e00
0600
0700
0300
0380
0180
01c0
0080
ENDCHAR
STARTCHAR bracketright
ENCODING 93
SWIDTH 573 0
DWIDTH 12 0
BBX 5 16 2 -1
BITMAP
f8
f8
18
18
18
18
18
18
18
18
18
18
18
18
f8
f8
ENDCHAR
STARTCHAR asciicircum
ENCODING 94
SWIDTH 573 0
DWIDTH 12 0
BBX 10 9 1 4
BITMAP
1e00
1e00
1e00
3300
3300
7380
6180
6180
c0c0
ENDCHAR
STARTCHAR underscore
ENCODING 95
SWIDTH 573 0
DWIDTH 12 0
BBX 15 2 -1 -2
BITMAP
fffe
fffe
ENDCHAR
STARTCHAR quoteleft
ENCODING 96
SWIDTH 573 0
DWIDTH 12 0
BBX 5 6 3 7
BITMAP
18
38
30
70
70
e0
ENDCHAR
STARTCHAR a
ENCODING 97
SWIDTH 573 0
DWIDTH 12 0
BBX 11 10 1 1
BITMAP
3f00
7f80
4180
3f80
7f80
e180
c180
c380
7fe0
3de0
ENDCHAR
STARTCHAR b
ENCODING 98
SWIDTH 573 0
DWIDTH 12 0
BBX 12 13 0 1
BITMAP
f000
7000
3000
3780
3fc0
38e0
3070
3030
3030
3030
3860
ffe0
f780
ENDCHAR
STARTCHAR c
ENCODING 99
SWIDTH 573 0
DWIDTH 12 0
BBX 11 10 1 1
BITMAP
1ec0
3fc0
71c0
e0c0
c080
c000
c000
60e0
7fc0
1f00
ENDCHAR
STARTCHAR d
ENCODING 100
SWIDTH 573 0
DWIDTH 12 0
BBX 11 13 1 1
BITMAP
07c0
04c0
00c0
1ec0
3fc0
63c0
c1c0
c0c0
c0c0
c0c0
61c0
7fe0
1ee0
ENDCHAR
STARTCHAR e
ENCODING 101
SWIDTH 573 0
DWIDTH 12 0
BBX 11 10 1 1
BITMAP
1f00
3fc0
70c0
e060
ffe0
ffe0
c000
6060
7fe0
1f00
ENDCHAR
STARTCHAR f
ENCODING 102
SWIDTH 573 0
DWIDTH 12 0
BBX 9 13 2 1
BITMAP
1f00
3f00
3000
3000
ff00
ff00
3000
3000
3000
3000
3000
ff00
ff00
ENDCHAR
STARTCHAR g
ENCODING 103
SWIDTH 573 0
DWIDTH 12 0
BBX 11 13 1 -2
BITMAP
1de0
7fe0
6380
c180
c180
c180
c180
6380
7f80
3d80
0180
3f80
3f00
ENDCHAR
STARTCHAR h
ENCODING 104
SWIDTH 573 0
DWIDTH 12 0
BBX 12 13 0 1
BITMAP
f000
7000
3000
3780
3fc0
38e0
3060
3060
3060
3060
3060
7df0
7df0
ENDCHAR
STARTCHAR i
ENCODING 105
SWIDTH 573 0
DWIDTH 12 0
BBX 9 15 2 1
BITMAP
1800
1800
1800
0000
0000
f800
f800
1800
1800
1800
1800
1800
1800
ff80
ff80
ENDCHAR
STARTCHAR j
ENCODING 106
SWIDTH 573 0
DWIDTH 12 0
BBX 8 18 1 -2
BITMAP
06
06
06
00
00
7f
7f
03
03
03
03
03
03
03
03
07
fe
7c
ENDCHAR
STARTCHAR k
ENCODING 107
SWIDTH 573 0
DWIDTH 12 0
BBX 11 13 1 1
BITMAP
e000
e000
6000
67c0
67c0
6700
6e00
7c00
7e00
6700
6380
e3e0
e3e0
ENDCHAR
STARTCHAR l
ENCODING 108
SWIDTH 573 0
DWIDTH 12 0
BBX 9 13 2 1
BITMAP
3800
f800
1800
1800
1800
1800
1800
1800
1800
1800
1800
ff80
ff80
ENDCHAR
STARTCHAR m
ENCODING 109
SWIDTH 573 0
DWIDTH 12 0
BBX 12 10 0 1
BITMAP
fdc0
ffe0
6660
6660
6660
6660
6660
6660
f770
f770
ENDCHAR
STARTCHAR n
ENCODING 110
SWIDTH 573 0
DWIDTH 12 0
BBX 12 10 0 1
BITMAP
f780
ffc0
38e0
3060
3060
3060
3060
3060
fdf0
fdf0
ENDCHAR
STARTCHAR o
ENCODING 111
SWIDTH 573 0
DWIDTH 12 0
BBX 11 10 1 1
BITMAP
1f00
7f80
61c0
c0e0
c060
c060
c060
61c0
7fc0
1f00
ENDCHAR
STARTCHAR p
ENCODING 112
SWIDTH 573 0
DWIDTH 12 0
BBX 12 13 0 -2
BITMAP
f780
ffc0
38e0
3070
3030
3030
3030
3860
3fe0
3780
3000
fe00
fe00
ENDCHAR
STARTCHAR q
ENCODING 113
SWIDTH 573 0
DWIDTH 12 0
BBX 11 13 1 -2
BITMAP
1ee0
7fe0
63c0
c0c0
c0c0
c0c0
c0c0
61c0
7fc0
1ec0
00c0
07e0
07e0
ENDCHAR
STARTCHAR r
ENCODING 114
SWIDTH 573 0
DWIDTH 12 0
BBX 11 10 1 1
BITMAP
f9c0
ffe0
1e40
1c00
1800
1800
1800
1800
ff80
ff80
ENDCHAR
STARTCHAR s
ENCODING 115
SWIDTH 573 0
DWIDTH 12 0
BBX 9 10 2 1
BITMAP
3d00
7f00
c300
c100
fc00
3f00
4380
c180
ff80
de00
ENDCHAR
STARTCHAR t
ENCODING 116
SWIDTH 573 0
DWIDTH 12 0
BBX 10 12 2 1
BITMAP
6000
6000
6000
ff00
ff00
6000
6000
6000
6000
6080
7fc0
1f00
ENDCHAR
STARTCHAR u
ENCODING 117
SWIDTH 573 0
DWIDTH 12 0
BBX 12 10 0 1
BITMAP
f1c0
f1c0
30c0
30c0
30c0
30c0
30c0
31c0
1ff0
0ef0
ENDCHAR
STARTCHAR v
ENCODING 118
SWIDTH 573 0
DWIDTH 12 0
BBX 12 10 0 1
BITMAP
f9f0
f9f0
30c0
30c0
1980
1980
0d80
0f00
0700
0600
ENDCHAR
STARTCHAR w
ENCODING 119
SWIDTH 573 0
DWIDTH 12 0
BBX 12 10 0 1
BITMAP
f0f0
f0f0
6660
6660
2760
2740
2d40
3dc0
19c0
1880
ENDCHAR
STARTCHAR x
ENCODING 120
SWIDTH 573 0
DWIDTH 12 0
BBX 12 10 0 1
BITMAP
7df0
7df0
1dc0
0d80
0600
0700
1f80
39c0
f9f0
f9f0
ENDCHAR
STARTCHAR y
ENCODING 121
SWIDTH 573 0
DWIDTH 12 0
BBX 13 13 0 -2
BITMAP
f8f8
f8f8
3060
38e0
18c0
1d80
0d80
0f00
0700
0600
0c00
ff00
ff00
ENDCHAR
STARTCHAR z
ENCODING 122
SWIDTH 573 0
DWIDTH 12 0
BBX 9 10 2 1
BITMAP
ff80
ff80
c700
ce00
1c00
1800
3180
6180
ff80
ff80
ENDCHAR
STARTCHAR braceleft
ENCODING 123
SWIDTH 573 0
DWIDTH 12 0
BBX 5 16 5 -1
BITMAP
38
78
60
60
60
60
60
e0
e0
60
60
60
60
60
78
38
ENDCHAR
STARTCHAR bar
ENCODING 124
SWIDTH 573 0
DWIDTH 12 0
BBX 2 18 5 -3
BITMAP
c0
c0
c0
c0
c0
c0
c0
c0
c0
c0
c0
c0
c0
c0
c0
c0
c0
c0
ENDCHAR
STARTCHAR braceright
ENCODING 125
SWIDTH 573 0
DWIDTH 12 0
BBX 5 16 3 -1
BITMAP
e0
f0
30
30
30
60
60
78
78
60
60
70
30
30
f0
c0
ENDCHAR
STARTCHAR asciitilde
ENCODING 126
SWIDTH 573 0
DWIDTH 12 0
BBX 9 4 2 6
BITMAP
2100
ff80
df00
8600
ENDCHAR
STARTCHAR space
ENCODING 160
SWIDTH 573 0
DWIDTH 12 0
BBX 0 0 0 1
BITMAP
ENDCHAR
STARTCHAR Aogonek
ENCODING 161
SWIDTH 573 0
DWIDTH 12 0
BBX 13 15 0 -2
BITMAP
3e00
3f00
0700
0d80
0980
18c0
1fc0
3fe0
3060
6070
f8f8
f8f8
00e0
00f0
0070
ENDCHAR
STARTCHAR breve
ENCODING 162
SWIDTH 573 0
DWIDTH 12 0
BBX 7 4 3 11
BITMAP
86
44
7c
38
ENDCHAR
STARTCHAR Lslash
ENCODING 163
SWIDTH 573 0
DWIDTH 12 0
BBX 11 12 1 1
BITMAP
fc00
fc00
3100
3700
3e00
3c00
f060
f060
3060
3060
ffe0
ffe0
ENDCHAR
STARTCHAR currency
ENCODING 164
SWIDTH 573 0
DWIDTH 12 0
BBX 10 10 1 2
BITMAP
40c0
fec0
7f80
7180
6180
6180
7380
7f80
fec0
4080
ENDCHAR
STARTCHAR Lcaron
ENCODING 165
SWIDTH 573 0
DWIDTH 12 0
BBX 12 13 1 1
BITMAP
0060
fcc0
fc00
3000
3000
3000
3000
3060
3060
3060
3060
ffe0
ffe0
ENDCHAR
STARTCHAR Sacute
ENCODING 166
SWIDTH 573 0
DWIDTH 12 0
BBX 9 16 2 1
BITMAP
0600
0c00
0000
0000
3d80
7f80
c380
c180
e000
7e00
1f00
0180
c180
e180
ff00
de00
ENDCHAR
STARTCHAR section
ENCODING 167
SWIDTH 573 0
DWIDTH 12 0
BBX 9 14 2 -1
BITMAP
3f00
7f00
6300
7000
fc00
ce00
e700
7380
3980
1f00
c700
c300
ff00
fe00
ENDCHAR
STARTCHAR dieresis
ENCODING 168
SWIDTH 573 0
DWIDTH 12 0
BBX 5 2 4 12
BITMAP
d8
d8
ENDCHAR
STARTCHAR Scaron
ENCODING 169
SWIDTH 573 0
DWIDTH 12 0
BBX 9 16 2 1
BITMAP
7e00
3c00
0000
0000
3d80
7f80
c380
c180
e000
7e00
1f00
0180
c180
e180
ff00
de00
ENDCHAR
STARTCHAR Scedilla
ENCODING 170
SWIDTH 573 0
DWIDTH 12 0
BBX 9 16 2 -3
BITMAP
3d80
7f80
c380
c180
e000
7e00
1f00
c180
c180
e180
ff00
fe00
0c00
0e00
3e00
1c00
ENDCHAR
STARTCHAR Tcaron
ENCODING 171
SWIDTH 573 0
DWIDTH 12 0
BBX 12 16 0 1
BITMAP
1f80
0f00
0000
0000
fff0
fff0
c630
c630
c630
4620
0600
0600
0600
0600
1f80
1f80
ENDCHAR
STARTCHAR Zacute
ENCODING 172
SWIDTH 573 0
DWIDTH 12 0
BBX 9 16 2 1
BITMAP
0600
0c00
0000
0000
ff80
ff80
c300
c600
0c00
1c00
1800
3180
6180
c180
ff80
ff80
ENDCHAR
STARTCHAR hyphen
ENCODING 173
SWIDTH 573 0
DWIDTH 12 0
BBX 5 2 4 6
BITMAP
f8
f8
ENDCHAR
STARTCHAR Zcaron
ENCODING 174
SWIDTH 573 0
DWIDTH 12 0
BBX 9 16 2 1
BITMAP
7e00
3c00
0000
0000
ff80
ff80
c300
c600
0c00
1c00
1800
3180
6180
c180
ff80
ff80
ENDCHAR
STARTCHAR Zdotaccent
ENCODING 175
SWIDTH 573 0
DWIDTH 12 0
BBX 9 16 2 1
BITMAP
1800
1800
0000
0000
ff80
ff80
c300
c600
0c00
1c00
1800
3180
6180
c180
ff80
ff80
ENDCHAR
STARTCHAR degree
ENCODING 176
SWIDTH 573 0
DWIDTH 12 0
BBX 7 6 3 8
BITMAP
78
fe
c6
c6
7c
38
ENDCHAR
STARTCHAR aogonek
ENCODING 177
SWIDTH 573 0
DWIDTH 12 0
BBX 11 13 1 -2
BITMAP
3f00
7f80
4180
3f80
7f80
e180
c180
c380
7fe0
3de0
0380
03c0
01c0
ENDCHAR
STARTCHAR ogonek
ENCODING 178
SWIDTH 573 0
DWIDTH 12 0
BBX 5 3 4 -2
BITMAP
60
c8
70
ENDCHAR
STARTCHAR lslash
ENCODING 179
SWIDTH 573 0
DWIDTH 12 0
BBX 9 13 2 1
BITMAP
3800
f800
1800
1900
1f00
1e00
3c00
f800
5800
1800
1800
ff80
ff80
ENDCHAR
STARTCHAR acute
ENCODING 180
SWIDTH 573 0
DWIDTH 12 0
BBX 5 2 5 12
BITMAP
30
60
ENDCHAR
STARTCHAR lcaron
ENCODING 181
SWIDTH 573 0
DWIDTH 12 0
BBX 11 13 2 1
BITMAP
38c0
f980
1800
1800
1800
1800
1800
1800
1800
1800
1800
ff80
ff80
ENDCHAR
STARTCHAR sacute
ENCODING 182
SWIDTH 573 0
DWIDTH 12 0
BBX 9 13 2 1
BITMAP
0600
0c00
0000
3d00
7f00
c300
c100
fc00
3f00
4380
c180
ff80
de00
ENDCHAR
STARTCHAR caron
ENCODING 183
SWIDTH 573 0
DWIDTH 12 0
BBX 6 4 3 11
BITMAP
44
cc
78
30
ENDCHAR
STARTCHAR cedilla
ENCODING 184
SWIDTH 573 0
DWIDTH 12 0
BBX 4 5 5 -3
BITMAP
60
70
70
f0
f0
ENDCHAR
STARTCHAR scaron
ENCODING 185
SWIDTH 573 0
DWIDTH 12 0
BBX 9 14 2 1
BITMAP
2200
6600
3c00
1800
3d00
7f00
c300
c100
fc00
3f00
4380
c180
ff80
de00
ENDCHAR
STARTCHAR scedilla
ENCODING 186
SWIDTH 573 0
DWIDTH 12 0
BBX 9 14 2 -3
BITMAP
3d00
7f00
c300
c100
fc00
3f00
c380
c180
ff80
de00
0c00
0e00
3e00
1c00
ENDCHAR
STARTCHAR tcaron
ENCODING 187
SWIDTH 573 0
DWIDTH 12 0
BBX 10 13 2 1
BITMAP
0300
6600
6000
6000
ff00
ff00
6000
6000
6000
6000
6080
7fc0
1f00
ENDCHAR
STARTCHAR zacute
ENCODING 188
SWIDTH 573 0
DWIDTH 12 0
BBX 9 13 2 1
BITMAP
0600
0c00
0000
ff80
ff80
c700
ce00
1c00
1800
3180
6180
ff80
ff80
ENDCHAR
STARTCHAR hungarumlaut
ENCODING 189
SWIDTH 573 0
DWIDTH 12 0
BBX 8 3 3 11
BITMAP
36
cc
88
ENDCHAR
STARTCHAR zcaron
ENCODING 190
SWIDTH 573 0
DWIDTH 12 0
BBX 9 14 2 1
BITMAP
2200
6600
3c00
1800
ff80
ff80
c700
ce00
1c00
1800
3180
6180
ff80
ff80
ENDCHAR
STARTCHAR zdotaccent
ENCODING 191
SWIDTH 573 0
DWIDTH 12 0
BBX 9 13 2 1
BITMAP
1800
1800
0000
ff80
ff80
c700
ce00
1c00
1800
3180
6180
ff80
ff80
ENDCHAR
STARTCHAR Racute
ENCODING 192
SWIDTH 573 0
DWIDTH 12 0
BBX 11 16 1 1
BITMAP
0300
0600
0000
0000
ff00
ff80
60c0
60c0
61c0
7f80
7e00
6700
6380
6180
f8e0
f8e0
ENDCHAR
STARTCHAR Aacute
ENCODING 193
SWIDTH 573 0
DWIDTH 12 0
BBX 13 16 0 1
BITMAP
0180
0300
0000
0000
3e00
3f00
0700
0d80
0980
18c0
1fc0
3fe0
3060
6030
f8f8
f8f8
ENDCHAR
STARTCHAR Acircumflex
ENCODING 194
SWIDTH 573 0
DWIDTH 12 0
BBX 13 17 0 1
BITMAP
0600
0f00
1980
0000
0000
3e00
3f00
0700
0d80
0980
18c0
1fc0
3fe0
3060
6030
f8f8
f8f8
ENDCHAR
STARTCHAR Abreve
ENCODING 195
SWIDTH 573 0
DWIDTH 12 0
BBX 13 17 0 1
BITMAP
10c0
18c0
0f80
0700
0000
3e00
3f00
0700
0d80
0980
18c0
1fc0
3fe0
3060
6030
f8f8
f8f8
ENDCHAR
STARTCHAR Adieresis
ENCODING 196
SWIDTH 573 0
DWIDTH 12 0
BBX 13 16 0 1
BITMAP
0d80
0d80
0000
0000
3e00
3f00
0700
0d80
0980
18c0
1fc0
3fe0
3060
6030
f8f8
f8f8
ENDCHAR
STARTCHAR Lacute
ENCODING 197
SWIDTH 573 0
DWIDTH 12 0
BBX 11 16 1 1
BITMAP
1800
3000
0000
0000
fc00
fc00
3000
3000
3000
3000
3060
3060
3060
3060
ffe0
ffe0
ENDCHAR
STARTCHAR Cacute
ENCODING 198
SWIDTH 573 0
DWIDTH 12 0
BBX 12 16 1 1
BITMAP
0300
0600
0000
0000
1f40
3fe0
70e0
e060
c000
c000
c000
c000
6020
7070
3fe0
1f80
ENDCHAR
STARTCHAR Ccedilla
ENCODING 199
SWIDTH 573 0
DWIDTH 12 0
BBX 12 16 1 -3
BITMAP
1f40
3fe0
70e0
e060
c000
c000
c000
c000
6020
7070
3fe0
1f00
0600
0700
0f00
0700
ENDCHAR
STARTCHAR Ccaron
ENCODING 200
SWIDTH 573 0
DWIDTH 12 0
BBX 12 16 1 1
BITMAP
1f80
0f00
0000
0000
1f40
3fe0
70e0
e060
c000
c000
c000
c000
6020
7070
3fe0
1f80
ENDCHAR
STARTCHAR Eacute
ENCODING 201
SWIDTH 573 0
DWIDTH 12 0
BBX 11 16 1 1
BITMAP
0300
0600
0000
0000
ffe0
ffe0
3060
3360
3360
3f00
3f00
3360
3060
3060
ffe0
ffe0
ENDCHAR
STARTCHAR Eogonek
ENCODING 202
SWIDTH 573 0
DWIDTH 12 0
BBX 11 15 1 -2
BITMAP
ffe0
ffe0
3060
3360
3360
3f00
3f00
3360
3060
3060
ffe0
ffe0
0380
03e0
01c0
ENDCHAR
STARTCHAR Edieresis
ENCODING 203
SWIDTH 573 0
DWIDTH 12 0
BBX 11 16 1 1
BITMAP
1b00
1b00
0000
0000
ffe0
ffe0
3060
3360
3360
3f00
3f00
3360
3060
3060
ffe0
ffe0
ENDCHAR
STARTCHAR Ecaron
ENCODING 204
SWIDTH 573 0
DWIDTH 12 0
BBX 11 16 1 1
BITMAP
3f00
1e00
0000
0000
ffe0
ffe0
3060
3360
3360
3f00
3f00
3360
3060
3060
ffe0
ffe0
ENDCHAR
STARTCHAR Iacute
ENCODING 205
SWIDTH 573 0
DWIDTH 12 0
BBX 9 16 2 1
BITMAP
0600
0c00
0000
0000
ff80
ff80
1800
1800
1800
1800
1800
1800
1800
1800
ff80
ff80
ENDCHAR
STARTCHAR Icircumflex
ENCODING 206
SWIDTH 573 0
DWIDTH 12 0
BBX 9 17 2 1
BITMAP
1800
3c00
6600
0000
0000
ff80
ff80
1800
1800
1800
1800
1800
1800
1800
1800
ff80
ff80
ENDCHAR
STARTCHAR Dcaron
ENCODING 207
SWIDTH 573 0
DWIDTH 12 0
BBX 12 16 0 1
BITMAP
1f80
0f00
0000
0000
ff80
ffc0
3060
3030
3030
3030
3030
3030
3070
30e0
ffc0
ff80
ENDCHAR
STARTCHAR Eth
ENCODING 208
SWIDTH 573 0
DWIDTH 12 0
BBX 12 12 0 1
BITMAP
ff80
ffc0
3060
3070
3030
fe30
fe30
3030
3070
30e0
ffc0
ff80
ENDCHAR
STARTCHAR Nacute
ENCODING 209
SWIDTH 573 0
DWIDTH 12 0
BBX 12 16 0 1
BITMAP
0180
0300
0000
0000
f1f0
f9f0
3860
3c60
3660
3660
3360
3360
31e0
31e0
fce0
fc60
ENDCHAR
STARTCHAR Ncaron
ENCODING 210
SWIDTH 573 0
DWIDTH 12 0
BBX 12 16 0 1
BITMAP
1f80
0f00
0000
0000
f1f0
f9f0
3860
3c60
3660
3660
3360
3360
31e0
31e0
fce0
fc60
ENDCHAR
STARTCHAR Oacute
ENCODING 211
SWIDTH 573 0
DWIDTH 12 0
BBX 11 16 1 1
BITMAP
0300
0600
0000
0000
1f00
7f80
61c0
e0e0
c060
c060
c060
c060
e0e0
71c0
3f80
1f00
ENDCHAR
STARTCHAR Ocircumflex
ENCODING 212
SWIDTH 573 0
DWIDTH 12 0
BBX 11 17 1 1
BITMAP
0c00
1e00
3300
0000
0000
1f00
7f80
61c0
e0e0
c060
c060
c060
c060
e0e0
71c0
3f80
1f00
ENDCHAR
STARTCHAR Ohungarumlaut
ENCODING 213
SWIDTH 573 0
DWIDTH 12 0
BBX 11 16 1 1
BITMAP
0d80
3300
2200
0000
1f00
7f80
61c0
e0e0
c060
c060
c060
c060
e0e0
71c0
3f80
1f00
ENDCHAR
STARTCHAR Odieresis
ENCODING 214
SWIDTH 573 0
DWIDTH 12 0
BBX 11 16 1 1
BITMAP
1b00
1b00
0000
0000
1f00
7f80
61c0
e0e0
c060
c060
c060
c060
e0e0
71c0
3f80
1f00
ENDCHAR
STARTCHAR multiply
ENCODING 215
SWIDTH 573 0
DWIDTH 12 0
BBX 9 9 2 3
BITMAP
4100
e380
7700
3e00
1c00
3e00
7700
e380
4100
ENDCHAR
STARTCHAR Rcaron
ENCODING 216
SWIDTH 573 0
DWIDTH 12 0
BBX 11 16 1 1
BITMAP
3f00
1e00
0000
0000
ff00
ff80
60c0
60c0
61c0
7f80
7e00
6700
6380
6180
f8e0
f8e0
ENDCHAR
STARTCHAR Uring
ENCODING 217
SWIDTH 573 0
DWIDTH 12 0
BBX 12 18 0 1
BITMAP
0600
0f80
0d80
0f80
0700
0000
fdf0
fdf0
3060
3060
3060
3060
3060
3060
3060
38e0
1fc0
0f80
ENDCHAR
STARTCHAR Uacute
ENCODING 218
SWIDTH 573 0
DWIDTH 12 0
BBX 12 16 0 1
BITMAP
0180
0300
0000
0000
fdf0
fdf0
3060
3060
3060
3060
3060
3060
3060
38e0
1fc0
0f80
ENDCHAR
STARTCHAR Uhungarumlaut
ENCODING 219
SWIDTH 573 0
DWIDTH 12 0
BBX 12 16 0 1
BITMAP
06c0
1980
1100
0000
fdf0
fdf0
3060
3060
3060
3060
3060
3060
3060
38e0
1fc0
0f80
ENDCHAR
STARTCHAR Udieresis
ENCODING 220
SWIDTH 573 0
DWIDTH 12 0
BBX 12 16 0 1
BITMAP
0d80
0d80
0000
0000
fdf0
fdf0
3060
3060
3060
3060
3060
3060
3060
38e0
1fc0
0f80
ENDCHAR
STARTCHAR Yacute
ENCODING 221
SWIDTH 573 0
DWIDTH 12 0
BBX 12 16 0 1
BITMAP
0180
0300
0000
0000
f9f0
f9f0
30c0
39c0
1980
0f00
0f00
0600
0600
0600
1fc0
1fc0
ENDCHAR
STARTCHAR Tcedilla
ENCODING 222
SWIDTH 573 0
DWIDTH 12 0
BBX 11 16 1 -3
BITMAP
ffe0
ffe0
cc60
cc60
cc60
4c40
0c00
0c00
0c00
0c00
3f80
3f80
0e00
0e00
1e00
1e00
ENDCHAR
STARTCHAR germandbls
ENCODING 223
SWIDTH 573 0
DWIDTH 12 0
BBX 10 13 1 1
BITMAP
1e00
3f80
3180
3180
3300
3f00
3f80
31c0
30c0
30c0
38c0
ff80
f700
ENDCHAR
STARTCHAR racute
ENCODING 224
SWIDTH 573 0
DWIDTH 12 0
BBX 11 13 1 1
BITMAP
0300
0600
0000
f9c0
ffe0
1e40
1c00
1800
1800
1800
1800
ff80
ff80
ENDCHAR
STARTCHAR aacute
ENCODING 225
SWIDTH 573 0
DWIDTH 12 0
BBX 11 13 1 1
BITMAP
0300
0600
0000
3f00
7f80
4180
3f80
7f80
e180
c180
c380
7fe0
3de0
ENDCHAR
STARTCHAR acircumflex
ENCODING 226
SWIDTH 573 0
DWIDTH 12 0
BBX 11 14 1 1
BITMAP
1c00
1e00
1200
0000
3f00
7f80
4180
3f80
7f80
e180
c180
c380
7fe0
3de0
ENDCHAR
STARTCHAR abreve
ENCODING 227
SWIDTH 573 0
DWIDTH 12 0
BBX 11 14 1 1
BITMAP
2180
1100
1f00
0e00
3f00
7f80
4180
3f80
7f80
e180
c180
c380
7fe0
3de0
ENDCHAR
STARTCHAR adieresis
ENCODING 228
SWIDTH 573 0
DWIDTH 12 0
BBX 11 13 1 1
BITMAP
1b00
1b00
0000
3f00
7f80
4180
3f80
7f80
e180
c180
c380
7fe0
3de0
ENDCHAR
STARTCHAR lacute
ENCODING 229
SWIDTH 573 0
DWIDTH 12 0
BBX 9 18 2 1
BITMAP
0c00
1800
0000
0000
0000
3800
f800
1800
1800
1800
1800
1800
1800
1800
1800
1800
ff80
ff80
ENDCHAR
STARTCHAR cacute
ENCODING 230
SWIDTH 573 0
DWIDTH 12 0
BBX 11 13 1 1
BITMAP
0300
0600
0000
1ec0
3fc0
71c0
e0c0
c080
c000
c000
60e0
7fc0
1f00
ENDCHAR
STARTCHAR ccedilla
ENCODING 231
SWIDTH 573 0
DWIDTH 12 0
BBX 11 14 1 -3
BITMAP
1ec0
3fc0
70c0
e0c0
c000
c000
c000
70e0
3fc0
1f80
0600
0700
1f00
0e00
ENDCHAR
STARTCHAR ccaron
ENCODING 232
SWIDTH 573 0
DWIDTH 12 0
BBX 11 14 1 1
BITMAP
0880
1980
0f00
0600
1ec0
3fc0
71c0
e0c0
c080
c000
c000
60e0
7fc0
1f00
ENDCHAR
STARTCHAR eacute
ENCODING 233
SWIDTH 573 0
DWIDTH 12 0
BBX 11 13 1 1
BITMAP
0300
0600
0000
1f00
3fc0
70c0
e060
ffe0
ffe0
c000
6060
7fe0
1f00
ENDCHAR
STARTCHAR eogonek
ENCODING 234
SWIDTH 573 0
DWIDTH 12 0
BBX 11 13 1 -2
BITMAP
1f00
3f80
71c0
60c0
ffe0
ffc0
e000
7060
3fe0
1f80
0c00
0f00
0700
ENDCHAR
STARTCHAR edieresis
ENCODING 235
SWIDTH 573 0
DWIDTH 12 0
BBX 11 13 1 1
BITMAP
1b00
1b00
0000
1f00
3fc0
70c0
e060
ffe0
ffe0
c000
6060
7fe0
1f00
ENDCHAR
STARTCHAR ecaron
ENCODING 236
SWIDTH 573 0
DWIDTH 12 0
BBX 11 14 1 1
BITMAP
1100
3300
1e00
0c00
1f00
3fc0
70c0
e060
ffe0
ffe0
c000
6060
7fe0
1f00
ENDCHAR
STARTCHAR iacute
ENCODING 237
SWIDTH 573 0
DWIDTH 12 0
BBX 9 13 2 1
BITMAP
0600
0c00
0000
f800
f800
1800
1800
1800
1800
1800
1800
ff80
ff80
ENDCHAR
STARTCHAR icircumflex
ENCODING 238
SWIDTH 573 0
DWIDTH 12 0
BBX 9 14 2 1
BITMAP
3800
3c00
2400
0000
f800
f800
1800
1800
1800
1800
1800
1800
ff80
ff80
ENDCHAR
STARTCHAR dcaron
ENCODING 239
SWIDTH 573 0
DWIDTH 12 0
BBX 15 13 1 1
BITMAP
07cc
04d8
00c0
1ec0
3fc0
63c0
c1c0
c0c0
c0c0
c0c0
61c0
7fe0
1ee0
ENDCHAR
STARTCHAR dbar
ENCODING 240
SWIDTH 573 0
DWIDTH 12 0
BBX 11 13 1 1
BITMAP
07c0
00c0
1fe0
1fe0
1cc0
7fc0
e1c0
c0c0
c0c0
c0c0
e1c0
7fe0
1ee0
ENDCHAR
STARTCHAR nacute
ENCODING 241
SWIDTH 573 0
DWIDTH 12 0
BBX 12 13 0 1
BITMAP
0180
0300
0000
f780
ffc0
38e0
3060
3060
3060
3060
3060
fdf0
fdf0
ENDCHAR
STARTCHAR ncaron
ENCODING 242
SWIDTH 573 0
DWIDTH 12 0
BBX 12 14 0 1
BITMAP
0880
1980
0f00
0600
f780
ffc0
38e0
3060
3060
3060
3060
3060
fdf0
fdf0
ENDCHAR
STARTCHAR oacute
ENCODING 243
SWIDTH 573 0
DWIDTH 12 0
BBX 11 13 1 1
BITMAP
0300
0600
0000
1f00
7f80
61c0
c0e0
c060
c060
c060
61c0
7fc0
1f00
ENDCHAR
STARTCHAR ocircumflex
ENCODING 244
SWIDTH 573 0
DWIDTH 12 0
BBX 11 14 1 1
BITMAP
1c00
1e00
1200
0000
1f00
7f80
61c0
c0e0
c060
c060
c060
61c0
7fc0
1f00
ENDCHAR
STARTCHAR ohungarumlaut
ENCODING 245
SWIDTH 573 0
DWIDTH 12 0
BBX 11 13 1 1
BITMAP
0d80
3300
2200
1f00
7f80
61c0
c0e0
c060
c060
c060
61c0
7fc0
1f00
ENDCHAR
STARTCHAR odieresis
ENCODING 246
SWIDTH 573 0
DWIDTH 12 0
BBX 11 13 1 1
BITMAP
1b00
1b00
0000
1f00
7f80
61c0
c0e0
c060
c060
c060
61c0
7fc0
1f00
ENDCHAR
STARTCHAR divide
ENCODING 247
SWIDTH 573 0
DWIDTH 12 0
BBX 10 10 1 2
BITMAP
0c00
1c00
0800
ffc0
ffc0
0000
0000
0c00
1c00
0800
ENDCHAR
STARTCHAR rcaron
ENCODING 248
SWIDTH 573 0
DWIDTH 12 0
BBX 11 14 1 1
BITMAP
1100
3300
1e00
0c00
f9c0
ffe0
1e40
1c00
1800
1800
1800
1800
ff80
ff80
ENDCHAR
STARTCHAR uring
ENCODING 249
SWIDTH 573 0
DWIDTH 12 0
BBX 12 15 0 1
BITMAP
0700
0f80
0d80
0f00
0600
f1c0
f1c0
30c0
30c0
30c0
30c0
30c0
31c0
1ff0
0ef0
ENDCHAR
STARTCHAR uacute
ENCODING 250
SWIDTH 573 0
DWIDTH 12 0
BBX 12 13 0 1
BITMAP
0180
0300
0000
f1c0
f1c0
30c0
30c0
30c0
30c0
30c0
31c0
1ff0
0ef0
ENDCHAR
STARTCHAR uhungarumlaut
ENCODING 251
SWIDTH 573 0
DWIDTH 12 0
BBX 12 13 0 1
BITMAP
06c0
1980
1100
f1c0
f1c0
30c0
30c0
30c0
30c0
30c0
31c0
1ff0
0ef0
ENDCHAR
STARTCHAR udieresis
ENCODING 252
SWIDTH 573 0
DWIDTH 12 0
BBX 12 13 0 1
BITMAP
0d80
0d80
0000
f1c0
f1c0
30c0
30c0
30c0
30c0
30c0
31c0
1ff0
0ef0
ENDCHAR
STARTCHAR yacute
ENCODING 253
SWIDTH 573 0
DWIDTH 12 0
BBX 13 16 0 -2
BITMAP
0180
0300
0000
f8f8
f8f8
3060
38e0
18c0
1d80
0d80
0f00
0700
0600
0c00
ff00
ff00
ENDCHAR
STARTCHAR tcedilla
ENCODING 254
SWIDTH 573 0
DWIDTH 12 0
BBX 10 16 2 -3
BITMAP
6000
6000
6000
ff00
ff00
6000
6000
6000
6000
6080
3f80
1f00
0c00
0e00
3e00
1e00
ENDCHAR
STARTCHAR dotaccent
ENCODING 255
SWIDTH 573 0
DWIDTH 12 0
BBX 2 2 5 12
BITMAP
c0
c0
ENDCHAR
ENDFONT
